# xmcd CD database file
#
# Track frame offsets:
#	150
#	19487
#	41051
#	62614
#	80406
#	99569
#	118846
#	135840
#	157368
#	179732
#	202888
#	216219
#	237254
#	258673
#	273249
#	288131
#	311836
#
# Disc length: 4457 seconds
#
# Revision: 0
# Processed by: cddbd v1.5.2PL0 Copyright (c) Steve Scherf et al.
# Submitted via: CDex 1.51
#
DISCID=00116711
DTITLE=La locomotora negra - Originals
DYEAR=2005
DGENRE=Jazz
TTITLE0=Blue wail
TTITLE1=Three bones shuffle
TTITLE2=Melody in the past
TTITLE3=Hi, Strays!
TTITLE4=Pauliorama
TTITLE5=Rare thing
TTITLE6=For boppers too
TTITLE7=Tom's wail
TTITLE8=Toffy-toffy
TTITLE9=Parisian rhapsody
TTITLE10=It's joy
TTITLE11=Harry tone
TTITLE12=A touch of shuffle
TTITLE13=Mr. Vic
TTITLE14=Faithful squeak
TTITLE15=Crazy drums
TTITLE16=Hi, Duke!
EXTD=YEAR: 2005
EXTT0=
EXTT1=
EXTT2=
EXTT3=
EXTT4=
EXTT5=
EXTT6=
EXTT7=
EXTT8=
EXTT9=
EXTT10=
EXTT11=
EXTT12=
EXTT13=
EXTT14=
EXTT15=
EXTT16=
PLAYORDER=
